<svg width="20" height="24" viewBox="0 0 20 24" fill="none" xmlns="http://www.w3.org/2000/svg">
<path d="M9 9H11V7H9M10 20C5.59 20 2 16.41 2 12C2 7.59 5.59 4 10 4C14.41 4 18 7.59 18 12C18 16.41 14.41 20 10 20ZM10 2C8.68678 2 7.38642 2.25866 6.17317 2.7612C4.95991 3.26375 3.85752 4.00035 2.92893 4.92893C1.05357 6.8043 0 9.34784 0 12C0 14.6522 1.05357 17.1957 2.92893 19.0711C3.85752 19.9997 4.95991 20.7362 6.17317 21.2388C7.38642 21.7413 8.68678 22 10 22C12.6522 22 15.1957 20.9464 17.0711 19.0711C18.9464 17.1957 20 14.6522 20 12C20 10.6868 19.7413 9.38642 19.2388 8.17317C18.7362 6.95991 17.9997 5.85752 17.0711 4.92893C16.1425 4.00035 15.0401 3.26375 13.8268 2.7612C12.6136 2.25866 11.3132 2 10 2ZM9 17H11V11H9V17Z" fill="#EDEDED"/>
</svg>
