<svg width="24" height="22" viewBox="0 0 24 22" fill="none" xmlns="http://www.w3.org/2000/svg">
<path d="M12.9982 8.525C12.9982 8.3062 13.0772 8.09636 13.2179 7.94164C13.3585 7.78692 13.5493 7.7 13.7483 7.7H19.2492C19.4482 7.7 19.639 7.78692 19.7796 7.94164C19.9203 8.09636 19.9993 8.3062 19.9993 8.525C19.9993 8.7438 19.9203 8.95365 19.7796 9.10836C19.639 9.26308 19.4482 9.35 19.2492 9.35H13.7483C13.5493 9.35 13.3585 9.26308 13.2179 9.10836C13.0772 8.95365 12.9982 8.7438 12.9982 8.525ZM13.7483 12.1C13.5493 12.1 13.3585 12.1869 13.2179 12.3416C13.0772 12.4964 12.9982 12.7062 12.9982 12.925C12.9982 13.1438 13.0772 13.3536 13.2179 13.5084C13.3585 13.6631 13.5493 13.75 13.7483 13.75H19.2492C19.4482 13.75 19.639 13.6631 19.7796 13.5084C19.9203 13.3536 19.9993 13.1438 19.9993 12.925C19.9993 12.7062 19.9203 12.4964 19.7796 12.3416C19.639 12.1869 19.4482 12.1 19.2492 12.1H13.7483ZM9.24754 8.525C9.24754 9.03554 9.06314 9.52517 8.73489 9.88618C8.40665 10.2472 7.96146 10.45 7.49725 10.45C7.03304 10.45 6.58785 10.2472 6.25961 9.88618C5.93136 9.52517 5.74696 9.03554 5.74696 8.525C5.74696 8.01446 5.93136 7.52483 6.25961 7.16382C6.58785 6.80281 7.03304 6.6 7.49725 6.6C7.96146 6.6 8.40665 6.80281 8.73489 7.16382C9.06314 7.52483 9.24754 8.01446 9.24754 8.525ZM4.99683 11.55H9.99767C10.2629 11.55 10.5173 11.6659 10.7049 11.8722C10.8925 12.0785 10.9978 12.3583 10.9978 12.65V13.2C10.9978 13.2 10.4977 15.95 7.49725 15.95C4.49675 15.95 3.99667 13.2 3.99667 13.2V12.65C3.99667 12.3583 4.10204 12.0785 4.28961 11.8722C4.47718 11.6659 4.73157 11.55 4.99683 11.55ZM0 3.025C0 2.22272 0.28978 1.4533 0.805591 0.886002C1.3214 0.318704 2.02099 0 2.75046 0H21.2495C21.979 0 22.6786 0.318704 23.1944 0.886002C23.7102 1.4533 24 2.22272 24 3.025V18.975C24 19.7773 23.7102 20.5467 23.1944 21.114C22.6786 21.6813 21.979 22 21.2495 22H2.75146C2.02199 22 1.3224 21.6813 0.806591 21.114C0.29078 20.5467 0.00100033 19.7773 0.00100033 18.975L0 3.025ZM2.75046 1.65C2.06034 1.65 1.50025 2.266 1.50025 3.025V18.975C1.50025 19.734 2.06034 20.35 2.75046 20.35H21.2495C21.9397 20.35 22.4997 19.734 22.4997 18.975V3.025C22.4997 2.266 21.9397 1.65 21.2495 1.65H2.75046Z" fill="#EDEDED"/>
</svg>
