<svg width="24" height="24" viewBox="0 0 24 24" fill="none" xmlns="http://www.w3.org/2000/svg">
<path d="M21.082 8.49902L17.7275 10.6807L12 14.4033L6.27246 10.6807L2.91699 8.49902L12 2.5957L21.082 8.49902Z" stroke="#EDEDED"/>
<path d="M17.5 17.5004C17.4998 18.2151 16.9998 18.955 15.9912 19.5434C14.9946 20.1247 13.5844 20.5004 12 20.5004C10.4156 20.5004 9.0054 20.1247 8.00879 19.5434C7.00019 18.955 6.50018 18.2151 6.5 17.5004V12.0209L11.7275 15.4193L12 15.5961L12.2725 15.4193L17.5 12.0209V17.5004Z" stroke="#EDEDED"/>
<path d="M21 9.15V15M12 15L18 11.1V17.5C18 19.433 15.314 21 12 21C8.686 21 6 19.433 6 17.5V11.1L12 15ZM12 15L2 8.5L12 2L22 8.5L12 15Z" stroke="#EDEDED" stroke-width="2" stroke-linecap="square"/>
</svg>
