<svg width="24" height="24" viewBox="0 0 24 24" fill="none" xmlns="http://www.w3.org/2000/svg">
<g clip-path="url(#clip0_40_115)">
<path d="M19.2692 8.26155C18.3328 8.26155 17.4347 7.88956 16.7726 7.22741C16.1105 6.56526 15.7385 5.6672 15.7385 4.73078C15.7385 3.79436 15.3665 2.8963 14.7043 2.23415C14.0422 1.572 13.1441 1.20001 12.2077 1.20001H11.7923C10.8559 1.20001 9.95783 1.572 9.29568 2.23415C8.63353 2.8963 8.26154 3.79436 8.26154 4.73078C8.26154 5.6672 7.88955 6.56526 7.2274 7.22741C6.56525 7.88956 5.66719 8.26155 4.73077 8.26155C3.79435 8.26155 2.89629 8.63354 2.23414 9.29569C1.57199 9.95784 1.2 10.8559 1.2 11.7923V12.2077C1.2 13.1441 1.57199 14.0422 2.23414 14.7043C2.89629 15.3665 3.79435 15.7385 4.73077 15.7385C5.66719 15.7385 6.56525 16.1105 7.2274 16.7726C7.88955 17.4348 8.26154 18.3328 8.26154 19.2692C8.26154 20.2057 8.63353 21.1037 9.29568 21.7659C9.95783 22.428 10.8559 22.8 11.7923 22.8H12.2077C13.1441 22.8 14.0422 22.428 14.7043 21.7659C15.3665 21.1037 15.7385 20.2057 15.7385 19.2692C15.7385 18.3328 16.1105 17.4348 16.7726 16.7726C17.4347 16.1105 18.3328 15.7385 19.2692 15.7385C20.2056 15.7385 21.1037 15.3665 21.7659 14.7043C22.428 14.0422 22.8 13.1441 22.8 12.2077V11.7923C22.8 10.8559 22.428 9.95784 21.7659 9.29569C21.1037 8.63354 20.2056 8.26155 19.2692 8.26155Z" stroke="#EDEDED" stroke-linecap="round" stroke-linejoin="round"/>
<path d="M19.5956 15.3084C18.9099 14.6231 18.5247 13.6938 18.5247 12.7249C18.5247 11.7559 18.9099 10.8266 19.5956 10.1414C20.2813 9.45615 20.6666 8.52685 20.6666 7.55787C20.6666 6.58889 20.2813 5.65959 19.5956 4.97437L19.291 4.67002C18.6052 3.9849 17.6751 3.60001 16.7052 3.60001C15.7354 3.60001 14.8053 3.9849 14.1195 4.67002C13.7799 5.00939 13.3767 5.2786 12.9329 5.46227C12.4892 5.64594 12.0136 5.74047 11.5333 5.74047C11.053 5.74047 10.5774 5.64594 10.1336 5.46227C9.68987 5.2786 9.28669 5.00939 8.94709 4.67002C8.26127 3.9849 7.33116 3.60001 6.36133 3.60001C5.3915 3.60001 4.46139 3.9849 3.77557 4.67002L3.47096 4.97351C2.78523 5.65873 2.4 6.58803 2.4 7.55701C2.4 8.52599 2.78523 9.45529 3.47096 10.1405C3.81062 10.4798 4.08006 10.8826 4.26389 11.326C4.44772 11.7694 4.54234 12.2445 4.54234 12.7244C4.54234 13.2043 4.44772 13.6795 4.26389 14.1229C4.08006 14.5662 3.81062 14.9691 3.47096 15.3084C2.78523 15.9936 2.4 16.9229 2.4 17.8919C2.4 18.8608 2.78523 19.7901 3.47096 20.4754L3.77471 20.7797C4.46053 21.4648 5.39064 21.8497 6.36047 21.8497C7.3303 21.8497 8.26041 21.4648 8.94623 20.7797C9.28583 20.4403 9.68901 20.1711 10.1328 19.9875C10.5765 19.8038 11.0521 19.7093 11.5324 19.7093C12.0127 19.7093 12.4883 19.8038 12.9321 19.9875C13.3758 20.1711 13.779 20.4403 14.1186 20.7797C14.8044 21.4648 15.7345 21.8497 16.7044 21.8497C17.6742 21.8497 18.6043 21.4648 19.2901 20.7797L19.5947 20.4762C20.2805 19.791 20.6657 18.8617 20.6657 17.8927C20.6657 16.9237 20.2805 15.9944 19.5947 15.3092" stroke="#EDEDED" stroke-linecap="round" stroke-linejoin="round"/>
</g>
<defs>
<clipPath id="clip0_40_115">
<rect width="24" height="24" fill="white"/>
</clipPath>
</defs>
</svg>
