<svg width="22" height="22" viewBox="0 0 22 22" fill="none" xmlns="http://www.w3.org/2000/svg">
<path d="M22 11.8462H13.8519V17.3191C13.8537 18.12 14.0735 18.904 14.486 19.5807C14.8985 20.2574 15.4868 20.7993 16.183 21.1437L17.9259 22L19.6688 21.1428C20.3651 20.7984 20.9534 20.2566 21.3658 19.5799C21.7783 18.9031 21.9982 18.1191 22 17.3182V11.8462ZM17.9259 20.1266L16.8805 19.613C16.4627 19.4066 16.1096 19.0817 15.8621 18.6758C15.6145 18.2699 15.4826 17.7995 15.4815 17.3191V13.5385H20.3704V17.3191C20.3691 17.7994 20.2371 18.2696 19.9896 18.6753C19.742 19.081 19.389 19.4058 18.9713 19.6122L17.9259 20.1266ZM11.4074 11.8462H1.62963C1.19742 11.8462 0.782922 12.0245 0.477307 12.3418C0.171693 12.6592 0 13.0896 0 13.5385V17.7692C0 18.2181 0.171693 18.6485 0.477307 18.9659C0.782922 19.2832 1.19742 19.4615 1.62963 19.4615H11.4074V17.7692H1.62963V13.5385H11.4074V11.8462ZM19.5556 0H15.4815C15.0493 0 14.6348 0.178296 14.3292 0.495665C14.0235 0.813035 13.8519 1.24348 13.8519 1.69231V9.30769H15.4815V1.69231H19.5556V9.30769H21.1852V1.69231C21.1852 1.24348 21.0135 0.813035 20.7079 0.495665C20.4023 0.178296 19.9878 0 19.5556 0ZM9.77778 0H1.62963C1.19742 0 0.782922 0.178296 0.477307 0.495665C0.171693 0.813035 0 1.24348 0 1.69231V7.61538C0 8.06421 0.171693 8.49466 0.477307 8.81203C0.782922 9.1294 1.19742 9.30769 1.62963 9.30769H9.77778C10.21 9.30769 10.6245 9.1294 10.9301 8.81203C11.2357 8.49466 11.4074 8.06421 11.4074 7.61538V1.69231C11.4074 1.24348 11.2357 0.813035 10.9301 0.495665C10.6245 0.178296 10.21 0 9.77778 0ZM1.62963 7.61538V1.69231H9.77778V7.61538H1.62963Z" fill="#EDEDED"/>
</svg>
