<svg width="24" height="20" viewBox="0 0 24 20" fill="none" xmlns="http://www.w3.org/2000/svg">
<path d="M4.74616 0V0.00382086C3.52039 0.126088 2.43682 1.22649 2.43682 2.63256C2.43682 3.41201 2.78493 4.09977 3.29485 4.57737L3.79496 5.04352L3.02518 5.15432C2.35347 5.25366 1.85826 5.53258 1.4464 5.9758C1.02964 6.4152 0.715846 7.02653 0.495208 7.72575C0.0931581 9.00955 0.00980611 10.5799 0 11.9478H2.15734L2.74081 18H7.46245L7.97727 11.9478H10.0316C10.0316 10.5646 10.0169 8.97516 9.64921 7.6799C9.45309 6.97304 9.1491 6.36553 8.73234 5.92613C8.31067 5.49055 7.79095 5.21163 7.04078 5.12375L6.2563 5.02823L6.7515 4.54681C7.24181 4.0692 7.57031 3.39291 7.57031 2.63256C7.57031 1.13479 6.35436 0.00382086 5.00111 0.00382086C4.85893 0.00382086 4.77067 0 4.74616 0ZM20.4801 0.305668C19.6367 0.305668 18.9601 0.831798 18.9601 1.49013C18.9601 2.14846 19.6367 2.67459 20.4801 2.67459C21.3234 2.67459 22 2.14846 22 1.49013C22 0.831798 21.3234 0.305668 20.4801 0.305668ZM14.1551 1.14625V2.98026H9.10497V3.66801H14.1551V9.70495H11.4584V10.3927H14.1551V14.5956H9.10497V15.2834H14.1551V16.506H18.1168C18.0923 16.3952 18.0776 16.2806 18.0776 16.1622C18.0776 16.0437 18.0923 15.9291 18.1168 15.8183H15.0377V10.3927H18.1168C18.0923 10.2819 18.0776 10.1673 18.0776 10.0488C18.0776 9.93038 18.0923 9.81575 18.1168 9.70495H15.0377V1.83401H18.1168C18.0923 1.72244 18.0776 1.60743 18.0776 1.49013C18.0776 1.37283 18.0923 1.25782 18.1168 1.14625H14.1551ZM20.4801 8.86436C19.6367 8.86436 18.9601 9.39164 18.9601 10.0488C18.9601 10.706 19.6367 11.2333 20.4801 11.2333C21.3234 11.2333 22 10.706 22 10.0488C22 9.39164 21.3234 8.86436 20.4801 8.86436ZM20.4801 14.9777C19.6367 14.9777 18.9601 15.505 18.9601 16.1622C18.9601 16.8194 19.6367 17.3466 20.4801 17.3466C21.3234 17.3466 22 16.8194 22 16.1622C22 15.505 21.3234 14.9777 20.4801 14.9777Z" fill="#EDEDED"/>
</svg>
